<?xml version="1.0" standalone="no"?>
<!DOCTYPE svg PUBLIC "-//W3C//DTD SVG 20010904//EN"
 "http://www.w3.org/TR/2001/REC-SVG-20010904/DTD/svg10.dtd">
<svg version="1.0" xmlns="http://www.w3.org/2000/svg"
 width="1440.000000pt" height="1030.000000pt" viewBox="0 0 1440.000000 1030.000000"
 preserveAspectRatio="xMidYMid meet">
<metadata>
Created by potrace 1.12, written by Peter Selinger 2001-2015
</metadata>
<g transform="translate(0.000000,1030.000000) scale(0.100000,-0.100000)"
fill="#000000" stroke="none">
<path d="M12825 9889 c-37 -11 -55 -34 -55 -71 0 -29 -28 -50 -290 -214 -25
-15 -135 -87 -245 -159 -319 -208 -304 -200 -326 -187 -29 19 -55 14 -89 -15
-36 -30 21 -28 -538 -14 l-263 6 -25 33 c-20 24 -33 32 -59 32 -18 0 -38 -7
-45 -15 -18 -22 -31 -20 -180 29 -74 24 -157 50 -185 59 -27 8 -143 45 -257
82 -208 67 -208 67 -208 96 0 36 -31 69 -65 69 -14 0 -37 -11 -51 -26 -31 -30
-27 -68 11 -99 22 -19 25 -33 44 -238 25 -265 25 -266 4 -274 -45 -17 -55 -65
-23 -106 l20 -26 -121 -363 c-67 -200 -126 -369 -132 -375 -5 -7 -17 -13 -27
-13 -22 0 -36 -17 -45 -53 -6 -23 -2 -32 29 -60 31 -29 38 -44 55 -123 31
-146 70 -325 86 -389 21 -91 56 -245 66 -294 8 -39 7 -45 -16 -63 -32 -25 -33
-70 -3 -98 12 -11 27 -20 34 -20 15 0 19 -23 45 -265 61 -579 79 -780 68 -784
-25 -8 -49 -42 -49 -69 0 -30 26 -62 50 -62 10 0 12 -21 6 -102 -3 -57 -9
-157 -12 -223 -3 -66 -12 -230 -19 -365 -8 -135 -17 -306 -21 -380 -9 -189 -7
-179 -42 -200 -17 -11 -34 -31 -38 -45 -8 -34 19 -74 56 -82 28 -5 32 -12 85
-172 30 -91 106 -317 168 -502 l113 -335 -20 -27 c-18 -24 -19 -31 -8 -60 7
-17 14 -35 15 -38 1 -3 -65 -108 -148 -233 l-149 -227 -33 6 c-27 5 -38 1 -58
-19 -32 -32 -32 -60 0 -91 30 -31 68 -32 96 -4 24 24 2 24 690 2 l205 -6 17
-28 c21 -38 61 -47 95 -22 15 11 28 29 30 40 2 15 27 27 125 57 67 20 201 62
297 92 96 30 211 65 255 78 44 13 127 39 184 57 83 26 107 30 122 21 29 -18
84 -15 102 6 19 21 22 73 6 89 -11 11 8 75 100 345 39 114 45 124 81 132 22 4
34 14 41 34 9 25 19 30 117 56 59 15 127 33 152 41 25 7 95 25 155 41 l110 28
27 -27 c34 -34 62 -34 93 -2 28 27 30 44 14 90 -11 29 14 121 136 493 3 7 13
15 22 19 34 12 53 36 53 67 0 39 -9 52 -42 65 -33 12 -29 -5 -73 311 -52 369
-113 790 -131 899 -15 90 -15 94 4 107 31 21 37 63 14 94 l-20 26 44 265 c53
323 48 303 78 317 46 21 43 107 -3 119 -23 6 -30 33 -62 230 l-23 142 22 24
c29 31 29 80 0 107 l-23 21 -3 515 c-3 428 -1 514 10 514 8 0 21 13 31 29 14
23 15 35 6 57 -12 34 -26 44 -60 44 -14 0 -33 8 -41 18 -8 9 -77 116 -153 236
-118 187 -136 222 -126 237 17 29 13 80 -8 103 -17 18 -18 28 -11 66 5 25 34
191 65 370 69 395 72 410 95 410 60 0 88 93 40 131 -28 21 -24 20 -65 8z m-22
-126 c3 -5 -4 -53 -14 -108 -10 -55 -25 -143 -34 -195 -9 -52 -34 -194 -55
-314 -22 -120 -40 -221 -40 -223 0 -1 -6 -3 -14 -3 -25 0 -57 -35 -64 -68 -7
-31 -24 -43 -222 -162 -182 -109 -217 -126 -230 -115 -8 7 -24 15 -35 17 -17
3 -35 48 -107 267 l-87 264 19 25 c11 13 20 37 20 52 0 28 55 67 390 281 46
30 165 107 265 171 175 113 199 126 208 111z m-2513 -331 c69 -22 204 -66 300
-97 96 -31 197 -64 223 -72 27 -8 50 -21 53 -31 3 -9 10 -25 15 -34 17 -33 24
-15 -193 -500 -57 -127 -64 -136 -88 -136 -15 1 -32 -2 -38 -6 -11 -6 -117 64
-360 238 -111 79 -113 81 -107 113 5 26 0 38 -23 65 -24 27 -30 45 -35 103 -4
39 -14 144 -23 235 -9 97 -12 166 -6 168 5 1 17 9 27 16 20 14 3 19 255 -62z
m1200 -227 c96 -3 203 -5 237 -5 56 0 63 -2 82 -29 l21 -28 -31 -64 c-33 -68
-336 -617 -350 -635 -4 -5 -23 -8 -42 -6 -32 4 -37 10 -144 210 -246 458 -277
521 -265 548 l11 24 153 -5 c84 -3 232 -7 328 -10z m-368 -330 c216 -408 232
-440 225 -459 -8 -21 -32 -20 -197 5 -74 11 -193 29 -265 39 -216 33 -204 29
-220 64 -15 31 -14 36 15 102 37 82 55 122 74 167 163 372 161 369 193 365 24
-3 43 -33 175 -283z m842 -18 c78 -238 87 -269 73 -280 -9 -7 -20 -23 -25 -37
-9 -24 -28 -30 -266 -89 -242 -60 -286 -66 -286 -41 0 6 81 157 180 336 99
179 180 328 180 332 0 16 33 53 43 50 7 -2 52 -124 101 -271z m-1816 -47 c37
-27 139 -100 227 -163 139 -98 160 -117 163 -143 1 -16 7 -39 13 -50 9 -18 -5
-54 -96 -235 -59 -118 -114 -223 -121 -233 -8 -11 -26 -21 -41 -23 -16 -2 -36
-13 -46 -24 -20 -25 -22 -25 -212 25 -77 20 -157 41 -177 47 -30 8 -40 18 -59
56 l-22 46 123 368 c84 250 129 370 139 372 34 10 44 5 109 -43z m2467 -20 c3
-5 16 -10 29 -10 30 0 36 -8 151 -190 170 -269 176 -282 167 -326 -9 -43 -29
-57 -357 -244 -93 -53 -239 -138 -323 -189 -84 -50 -158 -91 -165 -91 -6 0
-22 8 -34 18 l-22 17 18 333 c18 332 18 333 44 360 14 15 27 38 29 51 2 20 42
48 218 153 118 70 220 128 227 128 6 0 15 -4 18 -10z m-572 -322 c18 -13 33
-23 35 -24 1 -1 -5 -113 -14 -250 -9 -137 -18 -289 -21 -337 -5 -82 -7 -89
-29 -98 -14 -5 -29 -21 -34 -35 -10 -26 -12 -27 -78 -20 -37 3 -128 9 -202 13
l-135 6 -41 43 -40 42 -34 242 -34 241 26 22 c14 12 28 29 31 38 4 12 58 29
204 64 109 26 221 53 248 60 71 19 82 18 118 -7z m-1072 -38 c151 -22 293 -43
316 -47 32 -4 44 -11 49 -27 3 -11 18 -32 34 -46 26 -24 29 -35 59 -250 17
-124 31 -235 31 -247 0 -12 -9 -27 -20 -33 -12 -6 -25 -22 -30 -34 -6 -18 -19
-25 -52 -29 -24 -3 -122 -17 -218 -32 -269 -40 -268 -40 -312 -2 -34 30 -38
40 -62 152 -46 216 -127 568 -132 577 -7 11 35 58 51 58 6 0 135 -18 286 -40z
m-357 -17 c7 -24 40 -172 71 -318 15 -66 39 -181 55 -255 l29 -135 -21 -17
c-11 -10 -25 -18 -32 -18 -6 0 -49 22 -96 50 -47 27 -122 70 -167 96 -66 38
-83 52 -83 70 0 13 -5 34 -11 47 -9 21 -1 43 61 168 104 208 170 329 180 329
5 0 11 -8 14 -17z m2362 -230 c-4 -10 -43 -67 -87 -128 -44 -60 -182 -252
-307 -425 -220 -305 -228 -315 -263 -318 -35 -3 -38 -1 -78 65 -22 37 -67 109
-99 158 l-58 90 24 46 c21 41 38 54 172 135 83 49 158 94 168 99 42 24 198
114 327 190 177 104 177 104 194 105 8 0 11 -6 7 -17z m46 -445 c1 -238 2
-451 3 -473 3 -74 -6 -116 -29 -126 -12 -5 -29 -14 -38 -21 -13 -9 -33 -8 -95
6 -107 25 -444 106 -465 112 -9 3 -20 18 -23 34 -6 26 7 48 109 190 64 88 168
233 233 323 64 89 146 203 183 252 37 50 73 100 81 113 37 59 39 37 41 -410z
m-3003 210 c196 -51 205 -54 223 -84 10 -18 27 -34 37 -37 13 -3 21 -18 26
-48 4 -24 9 -53 11 -64 17 -85 44 -256 44 -275 0 -12 -11 -31 -24 -41 -15 -12
-26 -32 -28 -52 -3 -30 -14 -39 -161 -128 -150 -91 -186 -105 -202 -79 -3 5
-21 79 -41 167 -19 87 -53 237 -75 333 -76 338 -73 318 -47 340 13 11 25 20
28 20 3 0 97 -23 209 -52z m521 -204 c141 -83 180 -111 185 -131 3 -14 5 -26
3 -28 -44 -33 -139 -100 -201 -142 -73 -50 -80 -53 -96 -39 -10 9 -23 16 -29
16 -14 0 -15 3 -51 220 -26 159 -28 177 -13 193 8 9 17 17 19 17 2 0 85 -48
183 -106z m1270 -54 c100 -5 166 -13 168 -20 7 -21 34 -40 57 -40 16 0 30 -11
46 -37 12 -21 58 -93 101 -161 l78 -122 -12 -42 c-14 -45 3 -36 -413 -233 -55
-26 -146 -69 -203 -96 -99 -47 -103 -48 -127 -33 -30 19 -29 -9 -14 424 l12
324 26 27 c22 23 32 26 71 23 25 -2 119 -9 210 -14z m-388 -9 c7 -10 22 -20
33 -22 19 -4 20 -12 20 -119 0 -63 -3 -187 -7 -275 -4 -88 -8 -197 -8 -242 0
-63 -4 -85 -17 -99 -20 -19 5 -43 -219 217 -327 380 -373 435 -374 445 -1 32
28 43 150 59 69 9 142 19 162 22 21 3 72 11 115 18 110 18 130 18 145 -4z
m-549 -167 c23 -27 61 -72 86 -99 26 -28 75 -86 111 -129 36 -43 110 -131 165
-195 158 -184 165 -194 157 -226 -7 -25 -22 -32 -177 -85 -94 -32 -260 -90
-370 -128 l-201 -69 -34 18 c-19 10 -38 20 -42 21 -8 3 -15 34 -102 438 -44
199 -46 217 -32 245 8 16 17 37 20 47 2 9 51 49 108 90 179 127 174 124 224
122 43 -2 50 -6 87 -50z m-528 -224 c3 -5 16 -10 29 -10 21 0 25 -9 50 -127
29 -138 65 -304 97 -447 12 -57 16 -93 9 -100 -9 -9 -100 61 -389 302 l-136
113 0 43 -1 44 156 95 c85 53 160 96 167 96 6 1 15 -3 18 -9z m2084 -80 c20
-5 92 -23 161 -39 367 -86 360 -84 366 -108 4 -13 20 -34 38 -48 34 -26 34
-30 72 -267 l17 -107 -23 -19 c-16 -13 -23 -29 -22 -51 1 -33 0 -33 -164 -112
-90 -43 -171 -79 -178 -79 -7 0 -19 6 -26 14 -6 8 -20 16 -32 18 -16 2 -37 50
-114 263 -195 535 -183 498 -165 522 19 26 22 26 70 13z m-162 -112 c-103
-462 -157 -702 -160 -704 -1 -1 -13 -5 -27 -9 -22 -5 -56 20 -245 177 -121
101 -240 198 -263 216 -31 25 -42 41 -42 61 0 31 -16 21 235 142 477 229 478
230 499 209 19 -19 19 -22 3 -92z m92 -33 c21 -55 60 -163 88 -240 28 -77 72
-196 97 -265 45 -122 55 -170 38 -170 -5 0 -14 -10 -19 -23 -11 -23 -18 -24
-194 -36 -172 -12 -185 -11 -194 5 -5 9 -18 26 -28 36 -17 18 -15 29 44 291
33 150 72 325 87 390 14 65 30 116 35 114 5 -1 26 -48 46 -102z m-2222 -181
c81 -67 199 -163 261 -213 89 -73 112 -96 107 -111 -3 -11 -1 -28 4 -39 9 -16
-1 -34 -61 -113 -39 -51 -106 -138 -148 -193 -42 -55 -105 -137 -139 -183 -35
-45 -69 -81 -75 -79 -11 3 -21 85 -76 612 -12 116 -28 260 -35 320 -12 109
-11 129 6 123 4 -2 75 -58 156 -124z m1284 -86 l29 -22 -5 -210 c-8 -313 -11
-333 -43 -348 -15 -7 -32 -24 -39 -38 l-12 -25 -203 8 -203 8 -23 30 c-14 17
-33 29 -47 29 -35 0 -241 261 -236 299 4 32 3 32 104 66 45 15 145 50 222 78
155 55 418 147 423 147 2 0 16 -10 33 -22z m269 -144 c96 -81 207 -172 245
-203 102 -82 105 -84 105 -101 0 -32 -22 -42 -186 -81 -93 -22 -205 -48 -249
-59 -100 -25 -104 -25 -132 1 -22 21 -22 27 -18 143 3 67 7 188 10 271 4 127
7 152 22 162 9 7 19 13 22 13 3 0 85 -66 181 -146z m1390 -175 c0 -15 -57
-358 -81 -486 -9 -54 -14 -63 -33 -63 -23 0 -20 -3 -181 208 -96 126 -108 146
-97 163 7 10 12 26 12 34 0 11 58 44 172 100 143 69 174 81 190 72 10 -7 18
-19 18 -28z m-2356 -127 c53 -67 96 -127 96 -132 0 -6 -4 -18 -9 -28 -5 -9
-12 -24 -14 -33 -3 -9 -38 -26 -83 -42 -122 -40 -296 -101 -439 -152 -71 -25
-138 -45 -148 -43 -20 3 -30 -12 280 398 117 154 118 155 163 160 25 3 48 3
52 0 3 -3 49 -60 102 -128z m1846 -47 c0 -18 31 -35 64 -35 16 0 32 -11 48
-32 12 -18 64 -85 114 -149 136 -174 135 -173 121 -193 -11 -16 -27 -16 -232
-1 -494 34 -470 31 -485 60 -7 13 -25 28 -40 33 -27 10 -27 11 -33 132 l-7
122 30 29 c28 29 34 30 157 38 216 14 263 13 263 -4z m-503 -43 l33 -27 6
-125 c6 -116 5 -126 -13 -143 -19 -17 -26 -15 -184 42 -90 32 -220 78 -287
102 -74 25 -118 45 -110 49 7 4 81 24 163 44 83 20 195 47 250 60 55 14 102
25 105 25 3 0 20 -12 37 -27z m-770 -128 c43 -4 66 -11 79 -25 9 -10 26 -19
36 -19 18 0 19 -10 13 -252 -6 -261 -12 -378 -18 -384 -2 -3 -19 18 -38 45
-38 54 -334 460 -388 531 -43 57 -55 84 -47 105 5 14 24 15 153 10 82 -3 176
-8 210 -11z m-517 -345 c-185 -776 -176 -742 -194 -736 -6 2 -42 55 -81 119
-38 63 -89 145 -113 181 -24 37 -99 157 -167 268 l-124 202 19 36 c17 35 23
38 256 119 132 46 281 98 333 116 l93 33 24 -22 24 -23 -70 -293z m981 251
c277 -99 319 -116 319 -127 -1 -21 -29 -44 -453 -364 -200 -152 -198 -152
-192 24 3 67 7 209 10 316 5 183 6 194 27 217 13 13 26 24 29 24 3 0 120 -41
260 -90z m-716 -131 c77 -105 164 -223 192 -262 142 -194 147 -203 117 -228
-10 -8 -14 -23 -11 -42 4 -27 0 -30 -77 -67 -101 -47 -390 -187 -514 -247 -86
-42 -95 -44 -109 -30 -19 19 -20 16 67 372 32 132 79 329 105 438 25 108 48
205 52 215 8 21 23 42 32 42 4 0 70 -86 146 -191z m1500 -24 c372 -23 367 -22
363 -50 -2 -14 -75 -98 -184 -212 -99 -103 -204 -213 -233 -244 -52 -56 -53
-57 -89 -46 -20 6 -38 11 -39 12 -3 1 -74 199 -99 275 -9 25 -31 89 -51 142
-34 96 -35 97 -16 123 16 23 23 25 63 21 25 -3 153 -12 285 -21z m-409 -29
c16 -5 31 -31 58 -101 20 -52 36 -98 36 -102 0 -4 9 -30 19 -58 11 -27 36 -96
56 -152 37 -100 37 -104 21 -137 -12 -25 -14 -41 -7 -59 9 -24 0 -34 -169
-175 -156 -129 -183 -148 -209 -144 -16 2 -38 -1 -49 -7 -17 -9 -41 11 -211
183 -214 215 -223 226 -210 247 5 8 9 23 9 34 0 15 34 47 111 105 61 47 197
151 302 232 107 83 199 146 207 144 8 -3 25 -7 36 -10z m-1970 -178 c43 -73
117 -194 165 -268 47 -74 88 -142 92 -150 4 -8 13 -24 19 -34 110 -169 122
-196 97 -211 -6 -4 -9 -24 -8 -45 l3 -39 -159 -128 c-319 -256 -334 -266 -352
-252 -18 15 -17 48 17 654 10 187 22 400 26 473 3 72 10 132 13 132 4 0 43
-60 87 -132z m2811 108 c1 -1 9 -47 18 -102 9 -54 20 -126 25 -159 6 -33 14
-91 20 -130 5 -38 27 -194 49 -345 22 -151 47 -336 57 -411 l17 -137 -21 -27
c-12 -15 -22 -36 -22 -46 0 -10 -8 -20 -17 -23 -81 -24 -313 -89 -377 -106
-71 -19 -80 -19 -96 -5 -9 8 -22 15 -28 15 -22 0 -20 -6 -77 305 -8 44 -33
179 -55 300 -22 121 -43 234 -47 252 -3 21 0 39 11 54 9 13 16 37 16 54 0 24
17 47 83 115 45 48 151 159 236 249 139 146 157 162 180 156 14 -4 27 -8 28
-9z m-1601 -470 c3 -7 -8 -44 -25 -82 -16 -38 -51 -123 -77 -189 -89 -225 -98
-242 -136 -247 -18 -3 -40 -8 -48 -11 -20 -9 -425 175 -425 193 0 16 152 94
595 304 106 51 109 52 116 32z m234 -166 c248 -257 249 -257 243 -280 -6 -22
-12 -24 -123 -40 -41 -6 -164 -24 -273 -40 -226 -34 -253 -36 -260 -15 -6 13
32 116 112 305 18 41 46 110 63 152 17 43 38 79 47 81 9 3 18 5 21 6 3 0 80
-76 170 -169z m781 41 c4 -3 14 -46 24 -96 9 -49 23 -119 30 -155 6 -36 27
-144 44 -240 18 -96 41 -218 51 -270 13 -72 15 -98 6 -107 -13 -14 2 -27 -327
283 l-227 213 2 45 c1 49 -20 28 255 263 92 78 117 90 142 64z m-1615 -297
c55 -25 113 -52 130 -59 166 -75 161 -71 168 -106 3 -19 16 -41 27 -50 20 -15
20 -16 -34 -150 -52 -129 -145 -352 -172 -414 -7 -16 -21 -49 -30 -72 -13 -34
-22 -43 -40 -43 -13 0 -27 -4 -30 -10 -3 -5 -13 -10 -22 -10 -9 0 -176 107
-370 237 -340 228 -353 238 -353 268 0 34 -11 24 274 250 56 44 130 103 165
131 56 46 67 51 100 47 26 -4 41 0 50 11 19 23 27 21 137 -30z m1084 -75 c0
-14 -230 -320 -244 -324 -6 -2 -30 -6 -53 -8 -40 -5 -48 0 -195 104 -93 66
-153 116 -153 126 0 14 37 22 245 54 135 20 272 41 305 47 83 13 95 14 95 1z
m238 -132 c382 -360 413 -390 403 -400 -6 -6 -73 1 -193 22 -101 17 -282 47
-403 67 -121 19 -230 37 -241 40 -13 2 -23 13 -26 27 -4 19 23 61 118 188
l123 164 51 1 51 1 117 -110z m-783 -84 c59 -43 117 -84 128 -92 54 -36 63
-49 59 -88 -4 -43 25 -21 -380 -287 -238 -157 -252 -165 -252 -146 0 10 172
434 252 621 18 42 44 67 74 68 6 1 60 -34 119 -76z m-1065 -306 c107 -71 211
-141 230 -154 19 -14 78 -54 130 -89 133 -89 147 -102 154 -150 6 -40 4 -42
-135 -215 -78 -96 -160 -198 -183 -226 -32 -41 -45 -51 -61 -47 -11 4 -23 9
-27 13 -3 3 -31 80 -61 171 -30 91 -105 312 -167 493 -61 180 -108 332 -105
337 8 12 -12 24 225 -133z m1630 63 c145 -23 440 -72 577 -95 36 -6 78 -65 70
-99 -5 -23 -162 -407 -178 -438 -6 -11 -21 -18 -39 -18 -30 0 -60 -30 -60 -61
0 -11 -15 -20 -47 -29 -27 -7 -61 -16 -78 -21 -38 -11 -178 -51 -270 -77 -38
-11 -111 -30 -162 -42 l-92 -22 -25 28 c-16 19 -23 38 -21 54 4 24 17 280 34
647 6 151 8 164 30 187 18 19 30 23 55 20 17 -3 110 -18 206 -34z m1273 12
c16 -17 13 -29 -38 -188 -106 -328 -98 -309 -134 -312 -29 -3 -39 4 -90 60
-32 35 -84 95 -117 133 -32 39 -75 88 -96 110 -43 46 -48 72 -15 84 12 5 101
30 197 56 96 26 193 53 215 60 54 18 59 18 78 -3z m-1596 -12 c14 0 15 -22 9
-197 -8 -239 -24 -553 -32 -610 -4 -33 -10 -42 -29 -47 -14 -4 -31 -19 -39
-35 l-15 -28 -216 -7 -216 -7 -24 25 c-13 14 -33 26 -43 26 -21 0 -23 7 -61
170 -43 185 -45 209 -26 230 9 10 20 33 24 51 5 27 33 48 231 180 124 82 232
152 240 156 8 4 46 29 85 55 38 27 76 46 83 43 8 -3 21 -5 29 -5z m1130 -227
c33 -38 93 -106 133 -153 40 -47 82 -95 93 -107 29 -32 15 -59 -41 -77 -81
-26 -465 -126 -482 -126 -30 0 -16 55 65 258 97 243 105 259 137 265 13 2 26
5 29 6 4 0 33 -29 66 -66z m-1863 -282 c7 -11 61 -261 70 -323 6 -36 3 -54
-10 -75 -10 -15 -19 -29 -19 -30 -1 -2 -66 -12 -146 -23 -79 -11 -168 -25
-198 -30 -46 -8 -57 -7 -73 7 -10 9 -18 20 -18 25 0 7 93 126 197 253 14 17
57 69 96 117 68 83 89 99 101 79z m1446 -256 c9 -11 -2 -56 -61 -227 -40 -117
-76 -218 -81 -224 -4 -6 -25 -14 -45 -17 -40 -7 -28 -14 -334 186 -83 54 -149
103 -147 109 5 14 35 24 258 82 96 26 220 60 275 75 119 35 119 35 135 16z
m-800 -191 c26 -30 51 -37 89 -24 36 11 39 10 116 -42 44 -29 142 -93 218
-142 129 -83 137 -90 137 -120 l0 -32 -132 -41 c-151 -47 -586 -181 -726 -223
l-93 -28 -33 21 c-38 25 -40 32 -75 382 l-19 180 23 20 c12 11 25 28 28 37 7
18 40 21 328 26 104 2 129 -1 139 -14z m-577 -38 c44 -39 40 -20 71 -331 l24
-230 -35 -34 -35 -34 -242 7 c-609 16 -617 17 -628 42 -12 26 -21 11 174 304
114 172 125 185 156 188 28 3 47 19 67 59 1 2 53 10 116 19 111 16 279 40 289
42 3 1 22 -14 43 -32z"/>
<path d="M8533 9880 c-47 -19 -54 -98 -11 -121 14 -8 18 -17 14 -32 -3 -12
-31 -134 -61 -272 -97 -432 -116 -505 -135 -505 -9 0 -25 -6 -35 -14 -20 -14
-42 -7 -225 76 -30 14 -139 63 -242 108 -171 75 -187 85 -193 111 -12 53 -69
74 -113 43 -16 -11 -22 -25 -22 -54 0 -62 57 -90 108 -54 22 15 31 13 180 -52
325 -141 477 -213 477 -225 0 -7 -22 -18 -50 -25 -44 -12 -623 -128 -700 -141
-16 -2 -82 -16 -145 -29 -63 -14 -196 -40 -295 -60 -198 -38 -489 -96 -603
-119 -90 -19 -98 -19 -106 0 -3 8 46 138 108 288 165 393 152 367 176 367 52
0 79 44 60 94 -14 37 -51 52 -90 36 -37 -15 -47 -48 -30 -99 12 -37 9 -45
-117 -347 -117 -280 -132 -309 -154 -312 -26 -3 -64 54 -268 393 -60 100 -62
103 -107 175 -22 36 -84 136 -138 223 -96 156 -97 158 -84 192 11 31 10 38 -9
62 -34 47 -92 43 -113 -6 -16 -40 4 -82 45 -94 17 -5 36 -12 44 -16 11 -5 159
-243 512 -823 60 -99 73 -135 44 -124 -15 5 -382 257 -435 298 -14 11 -27 33
-30 50 -11 69 -94 88 -125 28 -16 -30 -12 -53 13 -82 17 -20 72 -24 90 -6 8 8
31 -4 94 -49 46 -33 152 -106 236 -163 135 -92 153 -107 150 -129 -3 -22 -41
-44 -338 -192 -389 -195 -394 -197 -416 -175 -37 37 -114 3 -114 -51 0 -27 41
-73 65 -73 29 0 55 20 69 54 13 31 42 47 381 215 268 133 371 179 379 171 8
-8 -22 -75 -108 -246 -99 -195 -122 -233 -137 -229 -10 3 -32 -1 -49 -10 -25
-13 -30 -22 -30 -51 0 -55 15 -74 59 -74 53 0 75 26 68 81 -5 37 6 63 110 275
109 222 134 260 147 217 7 -23 93 -410 118 -528 33 -161 33 -147 -1 -173 -59
-43 -32 -122 41 -122 34 0 68 32 68 64 0 14 -12 39 -26 56 -15 17 -33 57 -41
88 -30 127 -113 506 -112 516 0 12 78 -218 163 -489 32 -99 68 -211 81 -250
12 -38 62 -191 110 -340 48 -148 100 -310 117 -360 71 -220 198 -628 195 -632
-2 -1 -56 57 -120 130 -63 72 -144 164 -178 202 -34 39 -118 135 -188 214 -69
79 -136 155 -148 168 -12 14 -64 72 -115 131 -51 58 -115 130 -141 159 -46 52
-48 56 -41 99 8 58 -12 84 -67 84 -48 0 -74 -33 -64 -79 8 -38 26 -52 71 -56
20 -2 40 -8 43 -13 6 -9 106 -125 126 -146 11 -11 337 -379 539 -607 218 -246
253 -289 241 -289 -5 0 -165 98 -289 178 -38 24 -166 105 -285 179 -119 74
-232 145 -251 157 -19 13 -91 58 -160 101 -332 208 -330 206 -330 246 0 66
-73 94 -118 46 -29 -31 -28 -62 3 -93 19 -19 30 -23 52 -18 15 4 33 7 39 7 6
0 130 -74 275 -165 145 -91 343 -214 439 -273 96 -59 204 -127 240 -150 36
-22 88 -55 115 -73 126 -80 190 -122 185 -122 -8 0 -168 66 -362 149 -90 38
-180 76 -201 85 -31 13 -37 19 -32 35 6 21 -9 60 -29 73 -21 14 -73 8 -89 -10
-23 -25 -21 -75 3 -97 15 -13 30 -16 60 -12 42 5 117 -22 485 -178 61 -26 141
-60 180 -76 38 -17 74 -35 80 -40 9 -10 -308 -4 -360 6 -11 2 -25 18 -32 34
-12 33 -46 47 -86 37 -47 -11 -56 -92 -14 -121 30 -21 51 -19 84 9 29 25 30
25 204 19 219 -7 243 -15 119 -37 -160 -28 -355 -65 -570 -106 -113 -22 -257
-49 -320 -59 -63 -11 -143 -25 -178 -32 -61 -11 -63 -11 -83 15 -25 32 -77 36
-103 7 -43 -48 12 -136 71 -115 16 5 33 21 40 35 11 22 24 27 135 47 219 41
360 67 932 177 70 14 143 25 161 25 37 0 60 -22 51 -46 -7 -18 -45 -214 -95
-484 -17 -91 -35 -187 -40 -215 -6 -27 -31 -158 -56 -290 -25 -132 -49 -246
-53 -253 -8 -15 -81 -44 -93 -36 -4 2 -58 22 -121 44 -291 102 -273 94 -276
122 -5 39 -34 60 -78 56 -51 -4 -74 -40 -55 -85 18 -43 54 -58 94 -38 16 8 37
15 46 14 9 0 102 -31 206 -68 125 -45 190 -73 190 -82 0 -14 -51 -28 -525
-144 -107 -26 -211 -51 -230 -55 -19 -4 -82 -20 -139 -34 -94 -24 -105 -25
-121 -11 -23 21 -83 19 -103 -3 -21 -23 -22 -61 -1 -90 22 -32 76 -30 103 4
12 15 21 33 21 40 0 16 -32 7 400 113 640 157 588 146 613 124 33 -30 55 -34
92 -19 l34 15 98 -75 c54 -41 100 -82 101 -91 2 -8 -3 -34 -11 -57 -9 -22 -32
-86 -52 -141 -20 -55 -45 -119 -56 -142 -10 -24 -19 -45 -19 -49 0 -3 -11 -29
-24 -57 -22 -50 -40 -90 -93 -207 -92 -202 -194 -401 -205 -398 -7 3 -31 88
-56 197 l-44 192 26 26 c34 34 34 75 0 102 -34 26 -68 27 -94 1 -27 -27 -26
-71 3 -98 13 -12 28 -22 34 -22 10 0 20 -40 69 -272 l25 -116 -25 -26 c-15
-14 -26 -32 -26 -40 0 -9 -10 -18 -22 -20 -13 -3 -34 -7 -48 -10 -27 -5 -247
-50 -318 -64 -40 -9 -43 -8 -55 17 -9 20 -21 27 -51 29 -70 6 -103 -60 -53
-106 32 -30 65 -28 102 7 26 25 50 32 191 60 195 38 264 47 264 34 0 -5 -26
-27 -57 -49 -32 -21 -120 -84 -195 -139 -145 -106 -236 -171 -382 -273 -177
-123 -162 -116 -196 -102 -38 16 -73 7 -89 -24 -18 -32 -7 -72 24 -92 34 -22
83 -3 91 35 3 14 7 31 9 37 2 7 41 37 87 69 46 31 126 88 178 127 133 97 391
281 476 340 60 40 76 47 95 39 22 -8 25 -19 43 -147 10 -77 27 -186 37 -244
24 -136 24 -148 -6 -176 -31 -28 -33 -76 -5 -104 26 -26 60 -25 94 1 35 27 34
63 -4 101 -25 25 -32 44 -45 116 -7 48 -25 155 -39 237 -35 213 -35 209 -3
244 l27 31 231 0 232 0 23 -25 c32 -34 76 -33 104 2 38 49 9 105 -56 107 -33
1 -41 -4 -59 -31 l-20 -32 -231 -1 -231 0 -11 25 c-10 23 -3 43 71 193 97 196
155 322 208 449 44 105 137 352 151 401 11 40 20 40 68 2 28 -22 36 -35 33
-52 -3 -14 4 -34 17 -51 30 -37 83 -35 113 5 17 23 18 31 8 57 -16 38 -57 56
-95 41 -25 -9 -34 -6 -76 25 l-48 35 31 122 c16 68 31 124 32 126 2 2 34 7 71
13 38 5 111 17 162 25 l93 15 30 -25 c48 -40 89 -32 119 24 22 41 -18 90 -72
90 -34 0 -41 -5 -59 -35 -15 -24 -30 -36 -52 -40 -70 -13 -282 -44 -284 -41
-1 1 7 71 19 156 31 227 31 589 0 785 -22 138 -53 283 -67 318 -15 35 11 15
39 -31 35 -56 323 -494 375 -570 20 -29 41 -60 46 -69 6 -9 64 -100 131 -202
225 -345 317 -486 349 -536 50 -78 158 -244 290 -445 183 -279 208 -320 202
-326 -2 -3 -66 61 -140 143 -113 123 -134 151 -126 166 21 39 -15 87 -66 87
-42 0 -65 -22 -65 -64 0 -44 26 -66 78 -66 24 0 44 -6 49 -14 4 -7 65 -74 134
-147 185 -196 180 -188 163 -221 -12 -23 -26 -29 -111 -48 -54 -12 -132 -30
-173 -41 -103 -26 -262 -60 -265 -57 -1 2 -8 13 -14 26 -17 32 -93 32 -115 0
-32 -45 -9 -101 46 -114 23 -5 34 1 68 35 22 23 47 41 56 41 8 0 60 11 117 24
345 82 387 90 400 77 9 -10 6 -18 -18 -38 -46 -38 -232 -202 -289 -254 -28
-25 -82 -72 -121 -105 -38 -32 -121 -102 -183 -156 l-113 -97 -48 6 c-41 5
-52 2 -70 -16 -28 -28 -27 -66 4 -96 30 -30 54 -31 89 -4 19 15 26 30 26 54 0
28 8 40 53 76 28 24 104 89 167 144 63 56 143 124 177 152 34 29 79 67 100 86
21 20 52 46 68 58 17 13 63 54 104 91 60 56 79 68 106 68 54 0 86 48 67 100
-8 21 9 66 94 263 56 131 104 239 106 240 51 26 64 37 72 60 8 22 6 33 -11 55
-26 35 -70 40 -106 12 -33 -27 -35 -60 -3 -96 l23 -28 -54 -125 c-30 -69 -64
-146 -75 -171 -11 -25 -33 -73 -49 -107 -46 -102 -51 -99 -209 145 -74 114
-217 333 -319 487 -101 154 -198 303 -216 330 -82 127 -300 459 -423 647 -76
114 -148 225 -162 248 -14 22 -74 115 -134 206 -72 109 -105 169 -99 175 6 6
83 19 171 29 89 11 228 29 309 40 382 54 570 80 588 80 22 0 -4 -26 -214 -213
-111 -98 -125 -108 -151 -102 -23 5 -35 1 -55 -19 -46 -46 -19 -116 45 -116
45 0 72 32 68 82 -3 41 -2 42 113 147 164 151 229 206 242 206 20 0 19 -33 -2
-133 -11 -53 -45 -227 -76 -387 -31 -159 -62 -318 -70 -352 -8 -34 -15 -74
-15 -88 0 -16 -6 -25 -15 -25 -9 0 -27 -7 -40 -16 -31 -20 -35 -82 -7 -107 27
-25 78 -22 96 5 20 29 20 53 -1 88 -16 27 -15 37 15 202 33 180 60 320 122
623 26 129 40 181 51 182 8 2 68 -67 139 -160 119 -154 125 -164 122 -204 -3
-51 23 -83 66 -83 37 0 62 28 62 68 0 45 -32 75 -70 67 -28 -6 -35 1 -137 130
-163 206 -157 196 -141 234 12 29 32 40 217 122 203 90 205 90 248 79 36 -11
46 -10 68 4 34 22 36 87 3 110 -47 33 -108 7 -108 -45 0 -31 -13 -39 -205
-124 -16 -7 -70 -32 -119 -54 -49 -23 -93 -41 -97 -41 -23 0 -2 47 76 178 47
79 85 144 85 147 0 2 24 43 53 92 30 48 69 116 88 151 29 53 38 62 62 62 32 0
77 42 77 72 0 27 -45 68 -75 68 -49 0 -87 -74 -53 -108 11 -11 -11 -54 -164
-317 -35 -60 -91 -156 -123 -213 -63 -107 -79 -118 -102 -72 -7 14 -47 126
-89 250 -42 124 -100 293 -129 375 -47 135 -51 152 -39 172 21 33 17 61 -12
90 -20 20 -32 24 -56 19 -78 -16 -75 -113 5 -134 36 -9 38 -14 218 -550 l82
-244 -24 -24 c-22 -21 -37 -24 -174 -34 -228 -15 -232 -15 -247 17 -26 54
-112 48 -132 -10 -23 -65 78 -118 121 -63 19 23 25 25 208 35 104 5 192 8 197
5 18 -12 -5 -23 -60 -29 -31 -4 -131 -18 -222 -31 -343 -51 -736 -104 -773
-104 -10 0 -22 11 -27 25 -10 27 -5 41 67 195 22 47 72 155 111 240 96 212
106 235 300 650 206 443 226 485 312 675 37 83 84 184 103 225 19 41 46 100
59 130 14 30 36 78 48 105 13 28 43 93 67 145 25 52 63 135 85 183 34 73 45
87 62 85 20 -3 75 -79 275 -376 66 -99 68 -105 55 -130 -19 -36 -18 -45 7 -76
46 -59 148 -6 120 62 -12 28 -47 52 -76 52 -14 0 -36 29 -241 325 -101 146
-103 151 -98 193 5 33 2 47 -11 62 -17 18 -16 23 4 107 11 48 44 192 72 318
89 404 89 405 114 405 18 0 45 39 45 66 0 46 -54 81 -97 64z m-265 -1040 c-2
-6 -91 -68 -198 -140 -168 -112 -197 -127 -210 -115 -29 26 -64 28 -93 5 -32
-26 -35 -58 -6 -94 36 -46 119 -23 119 33 0 14 44 50 153 123 191 130 257 171
262 166 4 -4 -221 -422 -279 -518 -18 -30 -60 -104 -93 -165 -171 -315 -184
-335 -218 -335 -41 0 -63 -18 -71 -57 -5 -26 -1 -37 19 -57 32 -32 56 -33 92
-4 25 19 27 26 21 66 -6 48 -2 59 158 340 20 35 36 65 36 67 0 1 34 62 75 135
41 73 75 134 75 135 0 2 22 41 48 87 26 46 51 92 55 102 4 10 10 17 13 14 4
-5 -127 -299 -261 -583 -72 -153 -105 -225 -105 -229 0 -2 -18 -44 -41 -93
-22 -48 -47 -102 -55 -120 -17 -38 -78 -169 -127 -273 -143 -306 -257 -553
-257 -555 0 -2 -17 -41 -39 -87 -21 -46 -50 -108 -64 -138 -44 -98 -150 -325
-154 -329 -12 -15 -10 31 8 245 17 196 24 241 37 251 34 25 42 34 48 58 14 54
-51 101 -102 74 -42 -22 -45 -105 -4 -116 25 -7 25 -26 5 -239 -22 -237 -27
-274 -34 -274 -8 0 -23 44 -91 260 -52 165 -129 404 -200 620 -21 63 -51 158
-68 210 -116 366 -195 609 -267 830 -46 140 -82 257 -80 259 4 3 88 -68 166
-139 9 -8 45 -40 80 -71 35 -31 127 -112 203 -180 76 -68 173 -154 214 -191
75 -67 76 -68 73 -112 -3 -51 13 -66 72 -66 39 0 54 14 63 56 9 47 -22 78 -76
76 -44 -2 -66 13 -210 147 -14 13 -52 46 -85 75 -32 28 -82 72 -110 97 -27 25
-115 102 -195 171 -80 69 -156 138 -170 153 l-25 28 40 -6 c22 -4 146 -20 275
-36 129 -17 256 -33 282 -37 35 -5 51 -13 67 -35 38 -51 121 -27 121 35 0 67
-83 94 -125 42 l-22 -28 -169 21 c-428 55 -459 60 -443 76 4 4 220 50 379 80
195 38 544 107 600 120 70 16 304 62 385 76 28 5 149 29 270 53 258 52 238 49
233 36z m-1208 -3428 c-54 -42 -28 -122 39 -122 60 0 83 70 39 118 -23 23 -23
28 -26 325 -2 166 -1 299 1 297 10 -11 47 -183 64 -295 36 -243 15 -886 -30
-932 -7 -7 -67 -20 -134 -29 -118 -17 -123 -17 -143 1 -25 22 -25 38 0 156 10
52 26 132 34 179 24 132 82 448 116 630 30 162 40 205 56 265 6 19 10 -84 12
-270 l2 -299 -30 -24z m85 -654 c-2 -7 -14 -53 -25 -103 -12 -49 -25 -93 -29
-97 -10 -11 -195 125 -199 146 -5 26 6 33 68 40 30 4 71 11 90 15 55 14 100
13 95 -1z"/>
<path d="M4125 9859 c-23 -19 -26 -28 -23 -63 4 -31 -6 -71 -43 -171 -42 -113
-194 -521 -501 -1345 -178 -477 -200 -534 -223 -565 -16 -20 -24 -44 -24 -66
1 -19 -28 -113 -66 -214 -37 -99 -84 -227 -105 -285 -22 -58 -78 -208 -125
-335 -48 -126 -91 -243 -97 -258 -6 -15 -12 -27 -14 -25 -3 3 31 131 177 668
34 124 67 248 74 275 14 57 101 378 145 535 16 58 47 173 70 255 23 83 43 157
46 167 3 9 15 19 29 22 13 3 31 13 39 22 22 21 20 77 -2 97 -25 22 -75 21 -95
-1 -21 -23 -22 -70 -2 -92 13 -15 11 -30 -19 -141 -19 -68 -50 -187 -71 -264
-20 -77 -52 -194 -70 -260 -18 -66 -59 -217 -90 -335 -31 -118 -80 -300 -110
-405 -29 -104 -79 -287 -110 -405 -98 -366 -125 -437 -89 -234 8 49 19 118 24
154 19 139 122 864 146 1025 24 162 107 770 139 1015 9 63 27 195 40 293 25
178 25 179 60 212 41 38 44 67 10 100 -32 33 -68 32 -95 -2 -24 -31 -20 -65
11 -99 19 -20 19 -23 -11 -245 -17 -123 -37 -276 -45 -339 -36 -275 -85 -626
-115 -815 -5 -33 -19 -130 -30 -215 -20 -150 -32 -234 -64 -445 -8 -55 -29
-199 -46 -320 -30 -209 -51 -297 -43 -183 2 29 8 163 13 298 5 135 15 367 21
515 l12 270 29 27 c46 43 34 100 -25 121 -24 9 -62 -10 -78 -39 -11 -20 -10
-30 4 -59 9 -19 24 -35 33 -35 13 0 15 -13 10 -102 -3 -57 -11 -233 -17 -393
-6 -159 -12 -301 -14 -315 -2 -14 -4 -70 -4 -124 -1 -55 -3 -97 -7 -94 -8 9
-12 124 -19 533 -3 209 -8 409 -10 445 -12 185 -16 650 -6 650 23 0 51 40 51
73 0 41 -26 67 -67 67 -61 0 -86 -79 -39 -123 23 -21 23 -28 30 -242 3 -121 8
-332 11 -470 3 -137 7 -320 10 -405 8 -263 15 -826 10 -815 -3 8 -58 333 -240
1435 -14 85 -34 205 -45 265 -32 173 -80 449 -101 580 -21 127 -66 405 -76
467 -4 25 0 43 11 59 54 77 -46 166 -103 93 -24 -31 -26 -43 -9 -79 7 -17 23
-28 41 -32 16 -3 31 -11 33 -17 2 -6 37 -211 79 -456 41 -245 81 -481 89 -525
16 -82 77 -448 122 -725 13 -85 38 -236 55 -335 16 -99 39 -234 49 -300 11
-66 26 -156 34 -200 8 -44 18 -102 21 -130 4 -27 9 -59 12 -70 4 -14 2 -17 -5
-10 -6 6 -25 51 -42 100 -113 319 -155 432 -235 645 -24 63 -103 279 -175 480
-73 201 -170 468 -217 593 -81 218 -84 229 -69 252 33 51 6 115 -50 115 -37 0
-84 -36 -84 -65 0 -29 35 -64 71 -72 23 -4 31 -17 57 -87 16 -44 71 -193 122
-331 51 -137 105 -286 120 -330 16 -44 65 -179 110 -300 44 -121 110 -301 146
-400 36 -99 74 -202 84 -230 37 -95 110 -309 110 -320 0 -12 -15 19 -68 140
-22 50 -51 116 -66 147 -14 31 -26 60 -26 63 0 7 -44 109 -95 220 -19 41 -50
111 -69 157 -18 46 -89 209 -156 363 -67 154 -150 345 -185 425 -34 80 -106
243 -159 363 -53 119 -96 219 -96 222 0 3 -18 44 -39 92 -21 49 -112 257 -201
463 -139 323 -160 377 -151 398 30 64 0 116 -65 110 -48 -4 -74 -41 -59 -84
11 -29 25 -40 66 -48 26 -6 48 -51 226 -466 30 -69 60 -138 67 -155 25 -55
103 -240 108 -255 5 -12 198 -452 252 -575 48 -107 146 -334 146 -338 0 -3 15
-38 34 -79 19 -40 75 -167 124 -283 49 -115 118 -273 152 -350 34 -77 70 -163
80 -190 9 -28 32 -79 50 -115 37 -74 86 -200 72 -185 -5 6 -50 89 -100 185
-49 96 -103 200 -119 230 -53 97 -194 367 -318 605 -115 221 -375 714 -440
835 -34 63 -97 185 -140 270 -43 85 -86 169 -96 187 -14 24 -17 44 -12 81 5
45 3 51 -22 70 -15 12 -35 22 -45 22 -26 0 -70 -46 -70 -73 0 -35 35 -67 73
-67 36 0 36 0 135 -195 19 -38 87 -167 150 -285 63 -118 169 -321 235 -450 66
-129 141 -273 166 -320 26 -47 57 -105 70 -130 46 -90 164 -317 201 -385 35
-65 65 -123 266 -512 41 -79 72 -143 69 -143 -3 0 -30 39 -62 88 -31 48 -96
148 -144 222 -48 74 -130 200 -182 280 -52 80 -134 206 -182 280 -49 74 -120
185 -160 245 -182 277 -206 319 -199 345 21 69 0 111 -56 112 -87 3 -93 -121
-7 -137 21 -4 40 -17 54 -38 11 -18 69 -106 128 -197 109 -167 195 -298 380
-580 110 -166 177 -271 345 -530 131 -204 124 -191 108 -184 -7 3 -64 65 -126
137 -61 73 -131 152 -155 177 -23 25 -78 86 -121 135 -95 107 -306 341 -466
515 -64 69 -190 208 -280 310 -90 102 -167 187 -170 190 -3 3 -45 49 -94 104
-79 88 -87 101 -82 128 7 35 -17 87 -42 90 -57 5 -92 -19 -92 -64 0 -38 32
-68 73 -68 38 0 53 -14 277 -265 79 -88 169 -187 201 -220 31 -33 78 -85 104
-115 49 -56 156 -175 275 -304 36 -39 101 -112 145 -161 44 -49 125 -140 180
-200 55 -61 131 -147 169 -190 38 -44 96 -109 130 -145 76 -82 126 -143 121
-148 -2 -3 -62 31 -132 75 -153 95 -355 217 -668 404 -561 334 -550 327 -547
355 2 14 -4 36 -12 50 -22 33 -88 34 -110 2 -21 -30 -20 -50 6 -83 19 -24 26
-27 65 -21 40 5 52 1 141 -50 53 -31 129 -77 167 -102 39 -25 86 -54 105 -65
65 -36 274 -160 385 -227 61 -37 173 -104 250 -150 210 -124 305 -184 305
-192 0 -4 -35 8 -77 28 -43 20 -141 63 -218 96 -77 33 -173 75 -213 94 -41 19
-76 34 -78 34 -2 0 -33 13 -69 30 -58 27 -65 33 -65 59 0 42 -30 74 -70 74
-76 0 -96 -106 -25 -133 14 -5 36 -5 56 1 31 9 57 0 324 -116 160 -70 321
-140 359 -155 38 -16 74 -34 80 -40 12 -12 -103 -13 -266 -1 -103 7 -107 8
-136 39 -35 37 -72 42 -102 12 -26 -26 -25 -60 1 -94 26 -33 62 -34 95 -1 l26
26 191 -2 c106 -1 201 -5 212 -9 l20 -7 -20 -6 c-11 -3 -74 -16 -140 -27 -66
-12 -244 -47 -395 -77 -408 -82 -454 -91 -585 -115 l-121 -21 -26 26 c-15 15
-38 27 -51 27 -29 0 -67 -39 -67 -69 0 -30 43 -71 75 -71 24 0 65 31 65 49 0
13 16 17 140 40 58 11 227 45 375 76 246 50 663 134 742 148 33 7 47 -1 35
-20 -4 -6 -34 -42 -68 -79 -200 -226 -414 -469 -514 -585 -63 -73 -149 -172
-190 -219 -42 -47 -107 -121 -145 -166 -39 -44 -159 -180 -268 -303 -197 -219
-199 -221 -232 -215 -28 5 -39 1 -60 -20 -31 -31 -28 -69 7 -98 50 -43 111 -5
106 66 -1 25 6 42 28 67 16 19 153 174 304 344 407 459 548 619 619 704 35 41
76 89 92 105 16 16 61 69 101 117 83 100 119 127 56 41 -23 -31 -126 -172
-228 -312 -439 -604 -405 -562 -445 -554 -28 5 -38 2 -59 -20 -29 -28 -31 -43
-15 -80 12 -26 52 -45 81 -39 25 6 50 50 46 83 -3 30 31 81 326 487 28 37 137
188 244 336 107 147 196 267 199 267 7 0 -6 -38 -37 -105 -44 -97 -120 -273
-120 -279 0 -2 -15 -37 -34 -78 -19 -40 -84 -188 -144 -328 -60 -140 -160
-370 -222 -510 -62 -140 -127 -289 -145 -330 -167 -391 -481 -1114 -572 -1315
-109 -242 -121 -265 -142 -265 -22 0 -61 -44 -61 -70 0 -56 86 -85 122 -40 22
27 23 42 3 81 -16 29 -14 33 40 157 66 149 83 186 100 227 7 17 24 55 38 85
53 118 66 148 105 240 72 171 457 1059 542 1250 28 63 103 234 166 380 64 146
131 299 149 340 18 41 50 116 71 165 20 50 41 95 46 100 12 14 34 68 -406
-1035 -217 -542 -422 -1058 -457 -1147 -57 -144 -67 -163 -87 -163 -29 0 -72
-42 -72 -70 0 -11 11 -32 25 -45 58 -59 132 -5 105 75 -12 36 -10 46 35 161
102 269 240 620 371 944 75 187 149 372 164 410 42 108 90 227 105 260 7 17
57 142 111 280 94 241 152 377 138 325 -4 -14 -10 -38 -14 -55 -4 -16 -24 -88
-45 -160 -20 -71 -56 -202 -81 -290 -24 -88 -53 -191 -64 -230 -11 -38 -31
-110 -44 -160 -41 -150 -237 -829 -239 -829 -26 -6 -63 -38 -70 -60 -19 -57
59 -111 103 -71 28 25 34 63 13 94 -9 14 -16 35 -14 46 1 11 34 133 73 270 76
271 92 327 109 393 l12 43 17 -29 c10 -16 32 -34 48 -40 l31 -10 -14 -59 c-23
-100 -100 -491 -171 -868 -8 -44 -19 -93 -24 -110 -4 -16 -11 -41 -14 -55 -4
-19 -12 -26 -33 -28 -31 -2 -63 -34 -63 -62 0 -9 9 -29 21 -44 26 -33 77 -36
104 -6 16 18 17 25 6 73 -13 52 -5 119 39 327 5 25 25 131 45 235 19 105 41
219 50 255 8 36 27 126 41 200 14 74 34 146 43 160 10 16 16 47 16 85 1 33 25
185 55 339 49 250 56 276 66 250 7 -16 10 -32 9 -35 -4 -6 -41 -260 -80 -544
-48 -361 -66 -491 -96 -700 -17 -115 -36 -259 -44 -320 -7 -60 -27 -207 -44
-325 -92 -648 -90 -639 -128 -640 -32 0 -43 -72 -17 -109 15 -21 22 -23 65
-18 27 3 49 3 49 -1 0 -4 9 -18 19 -32 16 -20 22 -22 35 -11 13 11 31 3 116
-48 56 -34 103 -61 105 -61 3 0 5 6 5 14 0 12 -98 77 -172 115 -19 9 -28 21
-28 37 0 16 -6 25 -17 26 -10 0 -24 2 -32 2 -8 1 -18 14 -22 30 -5 16 -17 38
-28 50 -19 21 -19 22 9 221 16 110 38 272 50 360 21 156 74 540 105 760 9 61
42 308 75 550 53 391 69 506 84 595 3 14 5 28 5 33 1 4 13 4 27 1 64 -16 105
53 64 108 -22 30 -22 35 -16 187 8 166 23 341 31 349 4 4 6 -65 8 -245 0 -13
4 -23 9 -23 5 0 7 38 4 85 -4 71 -2 85 11 85 11 0 14 7 9 25 -4 14 -2 25 3 25
4 0 11 -15 14 -32 6 -32 26 -126 102 -488 20 -96 39 -186 42 -200 10 -56 24
-121 47 -225 14 -60 42 -184 61 -275 36 -168 59 -274 116 -525 67 -301 101
-455 124 -565 13 -63 40 -182 60 -265 50 -210 51 -216 26 -239 -27 -24 -28
-77 -2 -100 28 -26 82 -18 100 15 19 34 7 77 -24 91 -26 12 -45 59 -45 110 0
26 1 27 32 16 26 -9 33 -8 43 5 10 14 32 17 134 17 74 0 121 4 121 10 0 6 -49
10 -126 10 -117 0 -126 1 -131 20 -6 24 -15 25 -55 4 -32 -17 -47 -9 -48 26 0
8 -9 50 -19 95 -29 117 -100 433 -127 560 -28 133 -68 320 -94 435 -10 47 -28
132 -40 190 -12 58 -28 125 -36 150 -7 25 -20 83 -29 130 -9 47 -26 135 -40
195 -13 61 -38 175 -55 255 -17 80 -46 213 -65 295 -49 214 -67 306 -62 312 3
2 19 -42 37 -99 18 -57 66 -209 107 -338 41 -129 88 -280 104 -335 28 -91 111
-352 326 -1025 132 -414 142 -447 141 -491 0 -33 5 -47 22 -61 29 -24 65 -23
90 2 47 47 8 124 -59 118 l-34 -3 -33 100 c-134 414 -272 842 -310 967 -4 14
3 17 38 20 34 2 45 8 57 30 21 37 6 79 -36 97 -34 15 -14 -34 -225 546 -38
105 -74 201 -79 214 -32 76 -100 274 -95 278 2 3 17 -22 33 -54 27 -53 137
-250 493 -883 72 -129 152 -271 178 -315 25 -44 63 -113 84 -152 22 -40 63
-114 93 -164 40 -67 53 -99 49 -116 -10 -37 3 -67 36 -86 26 -16 34 -16 57 -5
33 16 47 62 30 97 -10 21 -20 27 -57 29 -39 2 -48 7 -64 35 -10 18 -59 104
-109 192 -50 88 -98 174 -108 190 -11 17 -22 37 -26 45 -4 8 -30 56 -59 105
-28 50 -62 110 -76 135 -14 25 -54 97 -90 160 -186 327 -348 623 -344 627 2 3
10 -6 17 -19 7 -12 111 -178 232 -368 121 -190 238 -374 261 -410 23 -35 59
-92 81 -126 22 -35 72 -113 110 -174 39 -61 106 -166 149 -233 44 -67 107
-165 141 -217 34 -52 79 -123 101 -158 21 -34 50 -80 64 -102 14 -22 42 -67
64 -101 28 -45 35 -64 27 -72 -18 -18 -13 -82 7 -100 25 -23 68 -21 92 3 41
41 12 120 -45 120 -18 0 -32 11 -51 43 -15 23 -68 105 -119 182 -50 77 -109
168 -131 203 -21 34 -59 93 -83 130 -24 37 -102 159 -173 272 -72 113 -150
234 -173 270 -23 36 -93 146 -155 245 -99 158 -197 310 -291 453 -16 24 -29
46 -29 50 0 5 -7 17 -15 27 -52 65 -186 285 -175 285 5 0 15 -9 23 -21 15 -20
271 -298 442 -479 173 -184 352 -376 405 -435 29 -33 83 -91 119 -130 37 -38
139 -146 226 -240 88 -93 179 -190 204 -215 63 -65 91 -104 91 -128 0 -48 86
-70 114 -30 44 62 -17 138 -82 104 l-27 -14 -185 196 c-102 108 -219 232 -261
276 -41 45 -110 117 -151 161 -42 44 -85 91 -96 104 l-19 25 31 21 c66 44 35
130 -44 123 l-39 -3 -396 394 c-346 345 -408 411 -391 411 2 0 37 -13 77 -29
105 -42 290 -113 382 -147 57 -21 82 -36 90 -54 7 -13 24 -31 39 -39 25 -14
29 -14 55 5 33 25 41 66 18 100 -20 31 -70 33 -102 2 l-23 -21 -102 38 c-57
21 -148 55 -203 75 -55 21 -122 46 -150 56 -36 14 -44 20 -29 22 19 3 306 -43
424 -68 25 -5 153 -27 285 -50 132 -22 290 -49 350 -60 61 -10 143 -24 183
-30 68 -11 75 -14 84 -41 14 -40 56 -62 88 -46 14 7 31 25 40 40 13 24 13 30
0 54 -23 40 -65 50 -101 24 l-30 -22 -272 46 c-150 26 -311 53 -359 60 -48 7
-111 18 -140 24 -29 6 -150 27 -268 46 -321 52 -367 61 -358 70 2 3 105 14
229 25 123 11 240 22 259 25 19 2 64 7 100 10 36 3 129 12 207 20 196 21 236
20 258 -5 53 -59 134 27 95 101 -8 14 -21 19 -49 19 -38 0 -61 -16 -74 -51 -3
-9 -20 -19 -39 -22 -57 -10 -359 -40 -362 -36 -2 2 -1 22 3 43 l6 40 205 41
c113 23 261 54 330 68 384 81 360 77 386 60 50 -32 112 16 99 77 -8 38 -49 62
-85 48 -29 -11 -40 -25 -40 -56 0 -14 -9 -26 -22 -32 -13 -6 -122 -31 -243
-56 -121 -25 -305 -64 -410 -86 -194 -41 -227 -45 -281 -33 -24 5 -37 2 -60
-18 -19 -16 -57 -31 -109 -42 -247 -52 -359 -74 -363 -71 -5 6 39 30 333 186
138 73 261 141 275 150 14 9 66 38 115 65 50 26 196 106 325 178 129 71 263
145 297 163 52 29 68 33 101 28 32 -5 44 -2 61 15 44 44 13 121 -47 121 -38 0
-62 -28 -62 -72 l0 -35 -262 -146 c-145 -80 -288 -158 -318 -175 -234 -126
-391 -212 -411 -225 -13 -8 -51 -29 -84 -47 -33 -18 -120 -66 -194 -107 -74
-40 -136 -71 -139 -69 -4 4 128 168 149 186 13 11 385 449 456 538 41 51 90
110 109 130 19 20 34 40 34 44 0 4 17 16 39 27 58 30 70 85 26 119 l-25 20 93
123 c52 68 147 194 213 280 65 86 173 227 238 313 105 138 122 156 148 156 34
0 78 39 78 70 0 11 -11 32 -25 45 -58 59 -143 -3 -105 -76 9 -16 5 -26 -19
-57 -17 -20 -47 -59 -67 -87 -21 -27 -85 -113 -144 -190 -90 -118 -189 -249
-404 -531 -17 -23 -43 -48 -57 -56 -14 -9 -29 -28 -33 -44 -4 -16 -40 -71 -79
-122 -92 -120 -325 -424 -471 -617 -63 -82 -128 -166 -145 -185 l-31 -35 19
45 c31 74 371 833 434 970 9 19 55 123 102 230 48 107 95 213 105 235 10 22
29 67 43 100 14 33 51 119 82 190 32 72 68 155 81 185 12 30 72 165 133 300
99 220 113 245 138 252 57 15 72 81 27 117 -36 28 -68 26 -93 -5 -25 -31 -26
-53 -6 -80 8 -10 15 -26 15 -35 0 -13 -140 -343 -169 -396 -5 -10 -39 -85 -75
-168 -237 -550 -238 -550 -250 -533 -6 8 -23 22 -38 32 -25 16 -26 19 -13 49
7 18 54 145 105 282 98 266 144 392 263 710 42 110 87 234 102 275 46 131 245
664 254 680 4 8 24 16 44 18 41 4 67 31 67 72 0 31 -8 44 -37 59 -30 15 -36
14 -68 -10z m-775 -2266 c0 -4 -47 -124 -104 -268 -57 -143 -106 -269 -110
-279 -4 -10 -9 -17 -11 -14 -3 3 18 65 45 139 28 74 68 181 89 239 57 156 72
190 82 190 5 0 9 -3 9 -7z m6 -145 c-161 -363 -250 -557 -254 -553 -4 4 15 58
43 120 8 17 60 147 116 290 56 143 107 266 112 273 5 6 18 12 28 12 15 0 9
-21 -45 -142z m252 -270 c7 -7 12 -15 12 -20 0 -4 -55 -72 -122 -151 -68 -79
-141 -166 -163 -193 -172 -210 -290 -347 -284 -329 6 18 532 705 539 705 3 0
11 -5 18 -12z m-497 -189 c-5 -13 -10 -19 -10 -12 -1 15 10 45 15 40 3 -2 0
-15 -5 -28z m229 -734 c0 -8 -4 -15 -8 -15 -27 0 -241 -30 -257 -36 -12 -4
-17 -3 -12 2 8 9 224 61 260 63 9 1 17 -6 17 -14z m26 -42 c-8 -8 -218 -33
-225 -27 -6 6 19 11 94 22 92 12 140 14 131 5z m-448 -463 c33 -91 74 -201 90
-245 17 -44 53 -143 81 -220 27 -77 70 -198 96 -269 43 -121 45 -130 29 -147
-21 -23 -30 -18 -43 24 -5 17 -31 100 -56 182 -62 199 -108 344 -194 610 -66
205 -78 245 -67 234 3 -2 32 -79 64 -169z m732 -510 c0 -28 -27 -15 -68 32
-26 29 -101 109 -167 178 -195 203 -340 361 -343 373 -2 7 127 -120 287 -281
160 -162 291 -297 291 -302z m-985 463 c-3 -10 -10 -36 -15 -58 -5 -22 -20
-92 -33 -155 -14 -63 -35 -158 -46 -210 -46 -216 -109 -492 -113 -493 -1 -1
-18 -10 -35 -19 -39 -20 -40 -15 -18 58 34 114 68 235 140 499 42 154 83 300
92 325 8 25 17 51 19 58 2 6 6 12 10 12 3 0 3 -8 -1 -17z m52 -157 c-8 -90
-16 -131 -25 -134 -13 -4 -11 43 3 128 2 8 6 44 10 80 8 66 17 98 22 70 1 -8
-3 -73 -10 -144z m-43 -37 c-9 -63 -23 -123 -30 -134 -8 -11 -14 -15 -14 -10
0 9 21 118 41 210 4 22 8 44 9 49 0 5 2 7 6 4 3 -3 -2 -57 -12 -119z m-150
-588 c-15 -78 -31 -141 -35 -141 -4 0 6 61 22 137 16 75 29 141 29 146 0 6 3
8 6 5 3 -4 -7 -70 -22 -147z"/>
<path d="M2806 5690 c3 -69 9 -170 14 -225 5 -55 21 -251 35 -435 14 -184 30
-386 35 -448 l11 -113 -32 -30 c-26 -24 -30 -34 -24 -57 19 -78 112 -86 130
-11 5 21 0 34 -25 63 -30 34 -32 42 -41 148 -4 62 -11 142 -14 178 -3 36 -19
234 -35 440 -47 588 -65 751 -54 490z"/>
<path d="M2777 5633 c-3 -5 0 -220 7 -479 8 -258 15 -572 16 -699 1 -126 4
-248 5 -270 1 -22 6 -194 10 -382 l8 -342 -23 -19 c-41 -33 -27 -103 25 -122
78 -29 126 97 50 132 -22 10 -25 18 -25 62 0 28 -5 143 -10 256 -15 342 -20
486 -30 970 -12 548 -21 894 -25 898 -2 2 -5 -1 -8 -5z"/>
<path d="M3830 3261 c0 -21 3 -59 6 -85 l7 -46 43 0 c51 0 60 17 12 22 -37 3
-45 22 -47 101 -1 56 -21 64 -21 8z"/>
<path d="M3970 3290 c0 -5 5 -10 10 -10 6 0 10 5 10 10 0 6 -4 10 -10 10 -5 0
-10 -4 -10 -10z"/>
<path d="M4160 3214 c0 -63 3 -85 12 -82 7 3 15 15 18 28 l6 23 17 -26 c25
-39 40 -33 20 9 -14 28 -15 39 -5 54 14 23 -1 36 -18 15 -21 -25 -30 -17 -30
25 0 22 -4 40 -10 40 -6 0 -10 -35 -10 -86z"/>
<path d="M3977 3236 c-8 -19 4 -96 14 -96 12 0 12 97 0 104 -5 3 -11 0 -14 -8z"/>
<path d="M4040 3195 c0 -30 5 -55 10 -55 6 0 10 15 10 33 0 18 5 38 12 45 18
18 38 -5 38 -44 0 -18 5 -36 10 -39 13 -8 13 55 0 89 -8 21 -16 26 -45 26
l-35 0 0 -55z"/>
<path d="M2683 2554 c-33 -14 -2 -84 36 -84 10 0 24 -7 31 -15 25 -30 -29 -62
-58 -33 -17 17 -28 2 -12 -17 15 -18 71 -20 88 -3 27 27 0 88 -40 88 -24 0
-44 28 -29 43 8 8 19 9 42 0 26 -10 30 -10 27 5 -3 17 -58 27 -85 16z"/>
<path d="M3140 2550 c0 -5 5 -10 10 -10 6 0 10 5 10 10 0 6 -4 10 -10 10 -5 0
-10 -4 -10 -10z"/>
<path d="M2818 2515 c-3 -14 -1 -28 3 -31 5 -3 9 -25 9 -50 0 -24 5 -44 10
-44 6 0 10 17 10 38 0 20 4 43 9 50 10 16 -9 62 -25 62 -7 0 -14 -11 -16 -25z"/>
<path d="M3058 2522 c-7 -26 3 -132 13 -138 5 -3 9 14 9 38 0 24 4 49 9 56 8
14 -8 62 -20 62 -4 0 -9 -8 -11 -18z"/>
<path d="M2928 2499 c-12 -7 -18 -22 -18 -49 0 -50 32 -76 74 -61 22 9 26 17
26 50 0 22 -3 46 -6 55 -7 18 -50 21 -76 5z m52 -54 c0 -28 -4 -35 -20 -35
-12 0 -22 9 -26 24 -7 31 1 46 27 46 15 0 19 -7 19 -35z"/>
<path d="M3148 2504 c-12 -11 -9 -92 3 -99 6 -4 12 -5 13 -4 7 9 -10 110 -16
103z"/>
<path d="M3206 2494 c-23 -22 -20 -77 5 -100 19 -17 23 -17 47 -3 20 11 28 24
30 51 5 58 -45 90 -82 52z m52 -16 c30 -30 -1 -94 -33 -68 -25 20 -13 80 15
80 3 0 11 -5 18 -12z"/>
<path d="M3320 2450 c0 -38 4 -59 10 -55 6 3 10 21 10 39 0 33 20 62 33 49 4
-3 7 -23 7 -44 0 -21 5 -41 11 -44 7 -5 9 13 7 52 l-3 58 -37 3 -38 3 0 -61z"/>
<path d="M10764 2007 c-3 -8 -4 -45 -2 -83 l3 -69 37 -3 c52 -4 78 24 78 83 0
57 -25 85 -75 85 -21 0 -38 -6 -41 -13z m80 -26 c12 -13 16 -32 14 -57 -2 -32
-8 -40 -30 -48 -15 -5 -30 -7 -33 -5 -8 9 -17 108 -10 119 10 16 40 12 59 -9z"/>
<path d="M10920 1940 c0 -47 4 -80 10 -80 6 0 10 33 10 80 0 47 -4 80 -10 80
-6 0 -10 -33 -10 -80z"/>
<path d="M11003 2013 c-14 -5 -17 -41 -5 -59 4 -7 24 -19 45 -27 40 -17 45
-28 22 -47 -12 -10 -21 -10 -42 -1 -32 15 -45 4 -19 -15 38 -28 96 -10 96 30
0 26 -28 56 -52 56 -24 0 -44 28 -29 43 8 8 19 8 41 0 24 -9 30 -9 30 2 0 21
-53 32 -87 18z"/>
<path d="M11130 2010 c0 -5 11 -10 24 -10 19 0 26 -7 31 -29 3 -15 5 -32 4
-37 -1 -5 -1 -24 0 -42 2 -61 21 -22 21 44 0 57 2 64 19 64 11 0 23 5 26 10 4
6 -18 10 -59 10 -37 0 -66 -4 -66 -10z"/>
<path d="M11290 1940 c0 -78 16 -112 22 -47 2 24 8 33 25 35 16 2 24 -4 33
-32 14 -44 34 -48 25 -6 -4 16 -1 45 6 64 18 49 1 66 -62 66 l-49 0 0 -80z
m85 35 c0 -16 -7 -20 -30 -20 -24 0 -31 5 -33 23 -3 21 0 23 30 20 25 -2 33
-8 33 -23z"/>
<path d="M11447 2013 c-7 -15 5 -153 14 -153 5 0 9 36 9 80 0 69 -9 98 -23 73z"/>
<path d="M11513 2004 c-6 -17 3 -130 13 -145 8 -14 80 -11 93 5 15 18 7 136
-11 147 -23 15 -88 10 -95 -7z m82 -29 c0 -13 -8 -21 -24 -23 -28 -4 -46 11
-37 33 9 25 61 16 61 -10z m13 -72 c3 -17 -3 -24 -22 -29 -33 -8 -46 1 -46 32
0 22 4 25 33 22 24 -2 33 -8 35 -25z"/>
<path d="M11668 2015 c-3 -3 -3 -36 0 -73 5 -70 19 -91 58 -92 37 0 54 31 54
98 0 81 -18 80 -22 0 -3 -63 -3 -63 -33 -63 -30 0 -30 1 -35 62 -5 60 -11 79
-22 68z"/>
<path d="M11810 2010 c0 -5 11 -10 25 -10 24 0 25 -2 25 -64 0 -36 4 -67 9
-71 10 -6 22 62 18 105 -1 19 3 26 21 28 46 7 20 22 -38 22 -33 0 -60 -4 -60
-10z"/>
<path d="M11970 1988 c0 -18 3 -57 6 -85 l7 -53 48 0 c26 0 51 5 54 10 4 6
-12 10 -39 10 -44 0 -46 1 -46 30 0 27 3 30 30 30 38 0 40 18 3 22 -20 2 -29
9 -31 26 -3 20 1 22 37 22 22 0 43 5 46 10 4 6 -17 10 -54 10 l-61 0 0 -32z"/>
<path d="M12126 2012 c-3 -4 -2 -43 1 -85 l6 -77 31 0 c64 0 97 51 76 116 -7
19 -20 39 -30 44 -22 12 -77 13 -84 2z m82 -24 c7 -7 12 -30 12 -53 0 -46 -13
-65 -47 -65 -22 0 -23 4 -23 65 0 61 1 65 23 65 13 0 28 -5 35 -12z"/>
<path d="M2030 1990 c-38 -38 -17 -141 32 -153 23 -6 68 16 68 33 0 13 -6 13
-30 -2 -40 -26 -81 33 -60 87 10 25 13 27 50 21 41 -6 49 1 28 22 -19 19 -66
14 -88 -8z"/>
<path d="M2160 1926 c0 -93 1 -95 69 -91 51 3 50 23 -1 27 -36 2 -44 7 -46 26
-3 18 2 23 27 28 37 8 41 24 7 24 -15 0 -26 7 -29 19 -7 27 0 31 45 31 21 0
38 5 38 10 0 6 -25 10 -55 10 l-55 0 0 -84z"/>
<path d="M2309 2008 c-1 -6 -2 -73 0 -115 2 -61 19 -53 23 10 l3 52 34 -58
c33 -58 57 -70 55 -29 0 12 -1 49 -2 82 -2 72 -22 81 -22 10 0 -27 -3 -50 -7
-50 -5 0 -19 21 -33 47 -21 39 -47 66 -51 51z"/>
<path d="M2460 2001 c0 -5 10 -11 23 -13 20 -3 22 -9 25 -71 4 -91 26 -87 30
6 3 64 4 67 27 67 14 0 25 5 25 10 0 6 -28 10 -65 10 -36 0 -65 -4 -65 -9z"/>
<path d="M2610 1925 c0 -50 4 -85 10 -85 6 0 10 12 10 28 1 63 40 68 66 7 17
-43 38 -38 23 5 -7 20 -7 35 0 49 28 52 3 81 -68 81 l-41 0 0 -85z m95 40 c0
-27 -62 -35 -72 -10 -8 21 14 36 47 33 17 -2 25 -9 25 -23z"/>
<path d="M2781 1945 c-24 -78 -27 -105 -9 -87 14 14 88 16 88 2 0 -5 7 -10 15
-10 11 0 9 15 -13 77 -36 103 -54 107 -81 18z m54 -1 c21 -50 19 -54 -15 -54
-16 0 -30 3 -30 6 0 11 23 84 26 84 2 0 11 -16 19 -36z"/>
<path d="M2910 1925 c0 -78 2 -85 20 -86 64 -5 84 -3 88 9 2 8 -10 12 -42 12
l-46 0 0 75 c0 43 -4 75 -10 75 -6 0 -10 -35 -10 -85z"/>
<path d="M3067 2003 c-11 -10 -8 -151 3 -158 6 -4 10 25 10 79 0 86 -1 92 -13
79z"/>
<path d="M3120 2000 c0 -5 16 -10 35 -10 19 0 35 -3 35 -6 0 -4 -16 -31 -35
-60 -49 -73 -47 -84 15 -84 28 0 50 5 50 10 0 6 -16 10 -35 10 -19 0 -35 4
-35 9 0 4 18 34 39 66 22 32 38 62 35 67 -7 12 -104 10 -104 -2z"/>
<path d="M3280 1925 l0 -85 55 0 c30 0 55 5 55 10 0 6 -21 10 -46 10 -44 0
-45 1 -42 28 2 21 9 28 31 30 37 4 35 22 -3 22 -25 0 -30 4 -30 25 0 23 4 25
45 25 25 0 45 5 45 10 0 6 -25 10 -55 10 l-55 0 0 -85z"/>
<path d="M3446 2001 c-3 -4 -5 -41 -5 -80 1 -64 3 -73 22 -80 30 -11 66 -2 82
22 24 34 19 100 -8 125 -23 22 -81 30 -91 13z m75 -21 c14 -8 19 -21 19 -54 0
-49 -17 -69 -52 -64 -19 2 -24 10 -26 42 -7 77 12 101 59 76z"/>
<path d="M6202 1928 l3 -83 42 -3 c33 -2 44 1 57 20 19 26 21 77 5 112 -12 25
-35 36 -82 36 l-28 0 3 -82z m78 42 c40 -40 17 -110 -36 -110 -23 0 -24 3 -24
58 0 32 3 62 7 65 12 12 33 7 53 -13z"/>
<path d="M6357 2003 c-3 -5 -4 -30 -2 -58 1 -27 3 -62 4 -77 1 -27 3 -28 56
-28 30 0 55 5 55 10 0 6 -21 10 -46 10 -44 0 -45 1 -42 28 2 19 9 28 26 30 30
5 28 22 -3 22 -20 0 -25 5 -25 25 0 23 4 25 45 25 25 0 45 5 45 10 0 11 -107
14 -113 3z"/>
<path d="M6516 1991 c-22 -24 -23 -93 -2 -126 19 -29 66 -34 86 -10 18 21 6
29 -19 13 -35 -21 -56 0 -56 57 0 57 21 78 56 57 25 -16 37 -8 19 13 -17 21
-63 19 -84 -4z"/>
<path d="M6652 1928 l3 -83 53 -3 c31 -2 52 1 52 7 0 6 -20 11 -45 11 -47 0
-48 1 -39 38 4 15 14 22 30 22 33 0 30 18 -3 22 -20 2 -29 9 -31 26 -3 20 1
22 42 22 25 0 46 5 46 10 0 6 -25 10 -55 10 l-56 0 3 -82z"/>
<path d="M6790 1931 c0 -47 4 -81 10 -81 6 0 10 23 10 50 0 28 4 50 8 50 5 0
21 -22 36 -50 41 -75 56 -67 56 31 0 51 -4 78 -10 74 -5 -3 -10 -26 -10 -51 0
-24 -3 -44 -7 -44 -5 0 -19 21 -33 47 -14 27 -33 49 -42 51 -16 3 -18 -6 -18
-77z"/>
<path d="M6950 2001 c0 -5 10 -11 23 -13 20 -3 22 -9 25 -65 2 -35 7 -63 12
-63 5 0 10 28 12 63 3 56 5 62 26 65 46 7 20 22 -38 22 -33 0 -60 -4 -60 -9z"/>
<path d="M7097 2003 c-11 -10 -8 -126 3 -143 7 -10 10 -11 11 -2 1 6 3 17 4
22 1 6 3 17 4 26 2 24 44 13 58 -16 7 -14 14 -29 16 -35 3 -5 7 -7 11 -4 4 3
2 18 -3 33 -7 18 -7 34 1 50 6 14 8 36 4 50 -6 23 -11 26 -55 26 -26 0 -51 -3
-54 -7z m88 -38 c0 -15 -8 -21 -32 -23 -30 -3 -33 -1 -33 23 0 24 3 26 33 23
24 -2 32 -8 32 -23z"/>
<path d="M7257 1936 c-26 -76 -25 -95 1 -74 17 15 74 12 84 -5 18 -29 20 8 3
65 -33 113 -54 117 -88 14z m61 -3 c11 -32 10 -33 -20 -33 -23 0 -29 3 -24 16
3 9 9 27 12 41 8 28 17 21 32 -24z"/>
<path d="M7400 1926 l0 -86 55 0 c30 0 55 5 55 10 0 6 -20 10 -45 10 l-45 0 0
69 c0 39 -4 73 -10 76 -6 4 -10 -25 -10 -79z"/>
<path d="M7540 1931 c0 -44 5 -83 10 -86 6 -4 10 25 10 79 0 51 -4 86 -10 86
-6 0 -10 -33 -10 -79z"/>
<path d="M7610 2000 c0 -5 16 -10 35 -10 19 0 35 -2 35 -5 0 -3 -16 -31 -35
-61 -47 -73 -46 -84 10 -84 25 0 45 5 45 10 0 6 -13 10 -30 10 -16 0 -30 4
-30 8 0 5 18 34 40 66 22 32 38 62 35 67 -8 12 -105 12 -105 -1z"/>
<path d="M7764 1997 c-3 -8 -4 -45 -2 -83 l3 -69 58 -3 c35 -2 57 1 57 8 0 5
-20 10 -45 10 -43 0 -45 1 -45 30 0 25 4 30 24 30 14 0 28 5 31 10 3 6 -4 10
-17 10 -29 0 -48 17 -41 36 3 9 21 14 49 14 24 0 44 5 44 10 0 16 -110 12
-116 -3z"/>
<path d="M7927 2003 c-9 -8 -9 -126 -1 -147 9 -22 76 -21 96 2 35 39 27 121
-12 142 -21 11 -73 13 -83 3z m77 -29 c40 -39 12 -120 -38 -112 -14 2 -19 14
-23 52 -2 27 -2 55 1 63 7 18 41 16 60 -3z"/>
<path d="M12825 1869 c-4 -6 -5 -12 -2 -15 2 -3 7 2 10 11 7 17 1 20 -8 4z"/>
<path d="M11352 1733 c-20 -40 -22 -76 -7 -129 8 -30 20 -54 25 -54 13 0 12 7
-4 53 -9 28 -10 52 -4 89 10 53 6 71 -10 41z"/>
<path d="M11580 1743 c0 -4 7 -27 17 -51 13 -35 14 -52 5 -90 -11 -50 -9 -63
9 -45 20 20 23 100 4 148 -9 25 -21 45 -26 45 -5 0 -9 -3 -9 -7z"/>
<path d="M2664 1713 c-3 -16 -8 -34 -10 -41 -5 -18 14 -103 28 -119 19 -23 28
-2 12 29 -16 31 -16 104 0 141 6 12 4 17 -8 17 -9 0 -18 -12 -22 -27z"/>
<path d="M2930 1735 c0 -3 7 -17 16 -31 13 -20 16 -40 11 -97 -5 -64 -4 -70 9
-53 28 39 11 186 -22 186 -8 0 -14 -2 -14 -5z"/>
<path d="M7000 1714 c-6 -14 -10 -43 -10 -66 0 -41 25 -108 41 -108 14 0 11
18 -7 46 -17 24 -16 96 1 137 4 10 3 17 -4 17 -6 0 -16 -12 -21 -26z"/>
<path d="M7230 1735 c0 -4 7 -20 16 -37 13 -24 15 -48 11 -97 -6 -59 -5 -64 8
-47 24 32 23 125 -2 163 -14 21 -33 31 -33 18z"/>
<path d="M2780 1654 c-12 -41 -19 -78 -15 -82 4 -4 10 -1 12 6 6 15 75 16 91
0 22 -22 22 -2 0 63 -38 115 -57 118 -88 13z m59 5 c12 -36 7 -49 -19 -49 -25
0 -29 9 -18 48 11 40 23 41 37 1z"/>
<path d="M7082 1648 l3 -83 50 3 c27 1 53 6 57 10 5 5 5 40 1 78 l-8 69 -53 3
-53 3 3 -83z m83 37 c0 -25 -37 -32 -54 -11 -18 21 -4 38 27 34 19 -2 27 -9
27 -23z m5 -60 c17 -20 -3 -45 -36 -45 -20 0 -24 5 -24 30 0 25 4 30 24 30 13
0 29 -7 36 -15z"/>
<path d="M11437 1712 c-19 -21 -22 -83 -6 -113 22 -42 99 -44 99 -3 0 13 -3
13 -24 -1 -31 -21 -54 -10 -62 30 -8 44 -3 65 18 79 13 8 23 8 39 -2 24 -16
32 -12 23 12 -9 22 -66 21 -87 -2z"/>
<path d="M8830 960 c0 -5 5 -10 10 -10 6 0 10 5 10 10 0 6 -4 10 -10 10 -5 0
-10 -4 -10 -10z"/>
<path d="M9240 960 c0 -5 5 -10 11 -10 5 0 7 5 4 10 -3 6 -8 10 -11 10 -2 0
-4 -4 -4 -10z"/>
<path d="M10910 871 c0 -98 12 -131 25 -71 8 38 15 38 39 -3 10 -17 21 -27 23
-21 2 7 -5 28 -16 47 -17 31 -18 37 -5 56 13 19 13 21 0 21 -8 0 -18 -4 -21
-10 -13 -22 -25 -8 -25 29 0 22 -4 43 -10 46 -6 4 -10 -30 -10 -94z"/>
<path d="M5638 954 c-11 -10 -10 -182 1 -188 5 -3 10 11 13 32 6 49 -5 166
-14 156z"/>
<path d="M5710 950 c0 -5 5 -10 10 -10 6 0 10 5 10 10 0 6 -4 10 -10 10 -5 0
-10 -4 -10 -10z"/>
<path d="M7485 948 c-3 -7 -3 -26 -1 -43 2 -16 4 -56 5 -88 2 -95 21 -56 21
43 0 80 -12 123 -25 88z"/>
<path d="M7565 950 c-3 -5 -1 -10 4 -10 6 0 11 5 11 10 0 6 -2 10 -4 10 -3 0
-8 -4 -11 -10z"/>
<path d="M8465 946 c-3 -9 -7 -23 -10 -31 -2 -8 -16 -15 -29 -15 -45 0 -63
-77 -28 -120 15 -19 25 -22 53 -16 l34 6 0 89 c0 85 -9 123 -20 87z m-7 -112
c2 -31 -1 -43 -13 -48 -26 -10 -35 2 -35 43 0 42 7 53 30 49 10 -2 16 -17 18
-44z"/>
<path d="M9310 865 l0 -95 39 0 c30 0 44 6 55 22 33 47 9 114 -42 120 -19 2
-28 9 -30 26 -2 12 -8 22 -13 22 -5 0 -9 -43 -9 -95z m86 -9 c7 -31 -12 -68
-34 -64 -17 3 -28 47 -18 74 9 24 45 17 52 -10z"/>
<path d="M9604 938 c-4 -13 -12 -26 -18 -30 -8 -6 -7 -10 2 -17 12 -7 17 -32
21 -103 1 -10 6 -18 11 -18 6 0 10 22 10 48 0 26 5 53 11 59 9 9 8 21 -5 47
-20 42 -22 43 -32 14z"/>
<path d="M9880 942 c0 -11 -13 -24 -32 -33 -43 -19 -60 -74 -34 -113 13 -21
25 -26 56 -26 l40 0 0 95 c0 78 -3 95 -15 95 -8 0 -15 -8 -15 -18z m-2 -104
c-2 -35 -7 -43 -23 -43 -15 0 -21 8 -23 28 -5 40 4 57 28 57 19 0 21 -5 18
-42z"/>
<path d="M10117 953 c-11 -10 -8 -183 2 -183 5 0 13 30 17 67 l7 67 34 -67
c48 -97 63 -90 63 28 0 57 -4 95 -10 95 -6 0 -10 -28 -10 -65 0 -36 -3 -65 -8
-65 -4 0 -18 22 -31 49 -25 53 -53 85 -64 74z"/>
<path d="M10429 958 c0 -2 -2 -12 -4 -22 -2 -10 -10 -23 -17 -28 -10 -7 -9
-10 4 -19 13 -7 16 -17 12 -39 -7 -34 2 -80 16 -80 6 0 10 24 10 53 0 29 5 58
10 63 7 7 5 21 -6 42 -13 28 -22 38 -25 30z"/>
<path d="M3727 943 c-11 -11 -8 -183 3 -183 6 0 10 18 10 40 0 39 1 40 36 40
45 0 41 24 -5 28 -28 3 -32 6 -29 30 3 25 7 27 51 30 26 2 45 7 42 13 -7 10
-98 13 -108 2z"/>
<path d="M3993 939 c-32 -12 -46 -46 -41 -101 8 -74 55 -110 100 -75 19 14 26
55 15 75 -10 14 -47 16 -47 2 0 -5 7 -10 15 -10 25 0 19 -47 -7 -56 -45 -14
-79 83 -44 129 15 20 47 22 64 5 16 -16 28 -2 13 16 -16 19 -42 25 -68 15z"/>
<path d="M4880 943 c-37 -14 -50 -36 -50 -88 0 -84 52 -130 103 -91 17 13 24
46 9 46 -4 0 -13 -9 -20 -20 -7 -11 -17 -20 -22 -20 -6 0 -19 9 -30 20 -27 27
-27 89 1 119 20 21 22 21 46 6 33 -22 45 -9 14 16 -25 20 -27 21 -51 12z"/>
<path d="M5302 929 c-6 -15 -17 -29 -24 -32 -10 -4 -9 -9 5 -20 12 -10 17 -29
17 -66 0 -28 5 -51 10 -51 6 0 10 22 10 49 0 32 6 55 16 66 15 14 15 17 1 28
-8 7 -17 21 -20 32 -3 18 -5 17 -15 -6z"/>
<path d="M6108 928 c-2 -17 -11 -24 -30 -26 -52 -6 -75 -73 -42 -120 12 -18
24 -22 52 -20 l37 3 3 93 c2 54 -1 92 -7 92 -5 0 -11 -10 -13 -22z m-1 -86 c7
-31 -8 -57 -33 -57 -14 0 -20 8 -22 33 -6 60 41 80 55 24z"/>
<path d="M6387 943 c-4 -3 -7 -46 -7 -94 0 -87 0 -87 28 -92 84 -17 135 92 76
162 -19 23 -34 31 -58 31 -18 0 -36 -3 -39 -7z m80 -35 c38 -48 14 -128 -37
-128 l-30 0 0 70 0 70 29 0 c16 0 33 -6 38 -12z"/>
<path d="M7116 920 c-11 -23 -13 -37 -6 -44 5 -5 10 -34 10 -63 0 -29 5 -53
10 -53 6 0 10 23 10 51 0 38 5 56 18 65 12 10 14 16 5 22 -7 4 -16 18 -21 32
-9 24 -9 23 -26 -10z"/>
<path d="M7932 930 c-4 -11 -23 -28 -42 -38 -31 -15 -35 -22 -38 -60 -4 -55
10 -72 59 -72 l39 0 0 95 c0 95 -4 112 -18 75z m-6 -84 c9 -36 1 -60 -20 -64
-32 -7 -50 50 -24 76 19 19 37 14 44 -12z"/>
<path d="M8667 943 c-9 -8 -9 -146 -1 -167 10 -26 76 -21 104 9 19 21 22 32
18 76 -4 39 -11 58 -28 71 -22 18 -80 25 -93 11z m74 -26 c23 -18 32 -65 18
-99 -11 -28 -48 -46 -68 -34 -9 6 -6 105 4 134 5 15 25 15 46 -1z"/>
<path d="M9031 918 c-11 -24 -11 -33 -3 -36 7 -2 12 -25 12 -58 0 -30 5 -54
10 -54 6 0 10 23 10 51 0 37 5 56 18 66 12 10 14 16 5 19 -7 3 -13 14 -13 25
0 30 -24 22 -39 -13z"/>
<path d="M3877 853 c1 -49 3 -91 3 -95 0 -5 5 -8 10 -8 6 0 10 38 10 95 0 69
-3 95 -12 95 -10 0 -12 -23 -11 -87z"/>
<path d="M4320 850 c0 -53 4 -90 10 -90 6 0 10 37 10 90 0 53 -4 90 -10 90 -6
0 -10 -37 -10 -90z"/>
<path d="M10692 904 c-27 -19 -37 -66 -20 -101 16 -34 41 -40 73 -19 19 13 25
25 25 54 0 61 -39 94 -78 66z m46 -26 c26 -26 8 -88 -25 -88 -21 0 -34 46 -21
75 12 27 27 32 46 13z"/>
<path d="M8910 895 c-18 -21 -3 -52 30 -64 17 -5 30 -17 30 -25 0 -18 -31 -21
-47 -5 -7 7 -13 7 -17 1 -7 -12 20 -42 39 -42 7 0 23 8 35 18 29 24 20 57 -20
71 -40 13 -40 35 0 28 32 -7 38 1 18 21 -16 16 -53 15 -68 -3z"/>
<path d="M9526 903 c-3 -3 -6 -25 -6 -48 0 -43 -20 -73 -40 -60 -5 3 -10 28
-10 56 0 27 -4 49 -10 49 -11 0 -14 -88 -4 -114 4 -11 19 -16 44 -16 35 0 38
2 44 38 12 72 4 116 -18 95z"/>
<path d="M9696 894 c-10 -9 -16 -33 -16 -59 0 -36 5 -48 24 -60 21 -14 28 -14
48 -3 l23 13 -30 3 c-27 4 -44 16 -45 34 0 4 17 8 38 10 34 3 37 5 35 32 -3
45 -46 62 -77 30z m50 -15 c10 -17 -13 -36 -27 -22 -12 12 -4 33 11 33 5 0 12
-5 16 -11z"/>
<path d="M10296 894 c-29 -29 -15 -117 21 -126 28 -6 53 2 53 18 0 11 -6 13
-20 9 -22 -7 -54 11 -45 25 3 4 21 11 40 14 28 6 35 12 35 29 0 45 -52 64 -84
31z m52 -22 c2 -7 -6 -12 -17 -12 -21 0 -27 11 -14 24 9 9 26 2 31 -12z"/>
<path d="M10500 894 c0 -30 31 -124 41 -124 6 0 15 15 21 32 l12 33 13 -33
c15 -37 30 -41 38 -9 19 85 22 108 14 113 -5 3 -12 -3 -15 -13 -18 -57 -21
-59 -28 -25 -9 41 -35 42 -42 2 -7 -33 -24 -41 -24 -11 0 26 -10 51 -21 51 -5
0 -9 -7 -9 -16z"/>
<path d="M10823 903 c-17 -3 -22 -13 -25 -51 -7 -84 15 -118 25 -37 2 25 12
54 21 64 17 19 21 32 9 30 -5 -1 -18 -4 -30 -6z"/>
<path d="M11041 896 c-18 -22 -6 -46 29 -59 22 -8 30 -18 31 -37 l1 -25 7 25
c9 30 -2 48 -32 52 -12 2 -23 12 -25 22 -4 16 0 18 28 13 23 -5 30 -3 28 6 -7
18 -53 20 -67 3z"/>
<path d="M5027 882 c-23 -25 -21 -84 2 -113 17 -22 21 -22 47 -9 l29 14 -32 4
c-18 2 -33 7 -33 13 0 5 0 12 0 17 -1 4 14 9 32 12 38 6 49 37 23 64 -22 21
-48 20 -68 -2z m52 -15 c13 -16 5 -27 -21 -27 -18 0 -25 20 -11 33 10 10 19 8
32 -6z"/>
<path d="M5144 886 c-3 -7 -3 -33 0 -57 2 -24 5 -50 5 -56 1 -7 6 -13 11 -13
6 0 10 24 10 54 0 40 4 55 16 60 27 10 34 -3 34 -60 0 -30 5 -54 10 -54 14 0
12 114 -2 128 -17 17 -77 15 -84 -2z"/>
<path d="M5410 893 c-24 -4 -25 -6 -22 -68 4 -69 22 -91 22 -27 0 28 7 45 25
62 22 20 26 43 7 39 -4 -1 -18 -4 -32 -6z"/>
<path d="M5500 880 c-22 -22 -26 -70 -10 -101 8 -14 21 -19 49 -19 43 0 49 8
45 60 -1 19 -3 45 -3 58 -1 18 -7 22 -31 22 -17 0 -39 -9 -50 -20z m60 -42 c0
-42 -13 -63 -34 -55 -22 9 -30 31 -22 62 5 18 13 25 31 25 22 0 25 -5 25 -32z"/>
<path d="M5717 883 c-4 -15 -2 -103 2 -123 1 -3 6 2 11 10 12 19 13 117 1 125
-5 3 -12 -3 -14 -12z"/>
<path d="M5795 889 c-4 -6 2 -13 14 -16 26 -7 26 -5 -5 -58 -14 -25 -23 -49
-19 -55 10 -17 85 -13 85 5 0 9 -9 15 -25 15 -14 0 -25 3 -25 6 0 3 14 25 31
50 16 24 27 49 24 54 -8 13 -72 13 -80 -1z"/>
<path d="M5905 876 c-33 -50 6 -136 54 -121 29 9 26 23 -6 27 -17 2 -29 10
-31 21 -3 13 4 17 32 17 43 0 51 12 34 47 -18 39 -61 43 -83 9z m60 -17 c0 -7
-8 -15 -17 -17 -18 -3 -25 18 -11 32 10 10 28 1 28 -15z"/>
<path d="M6566 884 c-32 -31 -13 -134 24 -134 19 0 40 13 40 24 0 6 -12 12
-27 11 -42 0 -36 29 7 35 30 4 35 9 32 29 -5 49 -45 67 -76 35z m54 -23 c0 -5
-7 -12 -16 -15 -22 -9 -24 -8 -24 9 0 8 9 15 20 15 11 0 20 -4 20 -9z"/>
<path d="M6699 883 c-22 -25 -18 -102 5 -119 25 -18 29 -18 57 5 29 23 20 38
-11 19 -18 -11 -23 -11 -36 6 -19 27 -18 39 7 67 14 17 22 20 25 12 6 -14 34
-18 34 -5 0 31 -59 42 -81 15z"/>
<path d="M6826 878 c-36 -51 -7 -121 47 -116 37 3 34 22 -3 22 -39 1 -32 30 8
34 40 4 50 24 28 57 -21 32 -59 33 -80 3z m64 -17 c0 -11 -26 -22 -34 -14 -12
12 -5 23 14 23 11 0 20 -4 20 -9z"/>
<path d="M6965 867 c-9 -44 -3 -103 10 -100 6 2 11 24 12 50 2 44 16 66 38 60
6 -2 11 -29 13 -61 2 -38 7 -56 15 -53 7 2 10 22 9 53 -5 78 -8 84 -52 84 -36
0 -40 -2 -45 -33z"/>
<path d="M7215 892 c-3 -3 -5 -27 -5 -53 0 -86 24 -110 33 -32 3 33 12 52 28
64 13 10 22 19 19 20 -19 5 -70 6 -75 1z"/>
<path d="M7344 885 c-22 -16 -25 -84 -5 -109 7 -9 28 -16 46 -16 38 0 43 11
37 86 -4 48 -5 51 -32 52 -15 0 -36 -5 -46 -13z m54 -57 c-2 -34 -7 -43 -22
-43 -10 0 -22 9 -26 20 -11 29 6 65 30 65 19 0 21 -5 18 -42z"/>
<path d="M7565 888 c-10 -24 -1 -123 10 -121 14 4 19 113 6 126 -7 7 -12 5
-16 -5z"/>
<path d="M7630 890 c0 -6 9 -14 20 -18 20 -7 19 -9 -9 -54 -34 -54 -26 -72 31
-66 38 4 41 22 3 26 -31 4 -31 8 5 56 41 54 39 66 -10 66 -22 0 -40 -5 -40
-10z"/>
<path d="M7750 880 c-41 -41 -14 -134 38 -128 36 4 41 27 5 25 -22 -2 -29 3
-31 21 -3 19 1 22 32 22 31 0 36 3 36 24 0 27 -24 56 -46 56 -8 0 -23 -9 -34
-20z m50 -25 c0 -8 -9 -15 -20 -15 -20 0 -26 11 -13 23 12 13 33 7 33 -8z"/>
<path d="M8131 881 c-17 -30 -13 -76 7 -101 15 -18 24 -21 50 -15 36 7 45 29
40 91 -3 38 -4 39 -45 42 -33 2 -44 -1 -52 -17z m67 -42 c4 -47 -23 -73 -44
-44 -17 23 -18 57 -2 73 22 22 43 9 46 -29z"/>
<path d="M8260 836 c0 -36 5 -68 10 -71 6 -4 10 11 10 37 0 48 20 85 38 74 7
-4 12 -31 12 -62 0 -30 5 -54 10 -54 11 0 14 98 4 124 -4 11 -19 16 -45 16
l-39 0 0 -64z"/>
<path d="M8830 835 c0 -37 4 -65 10 -65 6 0 10 28 10 65 0 37 -4 65 -10 65 -6
0 -10 -28 -10 -65z"/>
<path d="M9128 893 c-9 -22 -2 -117 10 -120 8 -3 12 6 12 27 0 35 15 69 39 87
13 10 10 12 -21 13 -20 0 -38 -3 -40 -7z"/>
<path d="M9240 835 c0 -37 4 -65 10 -65 6 0 10 28 10 65 0 37 -4 65 -10 65 -6
0 -10 -28 -10 -65z"/>
<path d="M4530 860 c0 -6 35 -10 86 -10 54 0 83 4 79 10 -3 6 -42 10 -86 10
-46 0 -79 -4 -79 -10z"/>
<path d="M11030 797 c0 -15 20 -27 46 -27 20 0 17 16 -3 24 -10 3 -24 9 -30
12 -7 3 -13 -1 -13 -9z"/>
<path d="M6176 782 c-8 -13 5 -82 15 -82 11 0 22 43 17 66 -3 20 -23 30 -32
16z"/>
<path d="M4100 765 c0 -8 5 -15 10 -15 6 0 10 7 10 15 0 8 -4 15 -10 15 -5 0
-10 -7 -10 -15z"/>
</g>
</svg>
